<svg class="recharts-surface" width="600" height="300" xmlns="http://www.w3.org/2000/svg">
  <g class="recharts-layer recharts-cartesian-axis recharts-xAxis xAxis">
    <path class="recharts-cartesian-axis-line" stroke="#666" fill="none" d="M80 243h490"/>
    <g class="recharts-cartesian-axis-ticks">
      <g class="recharts-layer recharts-cartesian-axis-tick">
        <path class="recharts-cartesian-axis-tick-line" stroke="#666" fill="none" d="M80 249v-6"/>
        <text x="80" y="251" fill="#666" class="recharts-text recharts-cartesian-axis-tick-value" text-anchor="middle">
          <tspan x="80" dy=".71em">Page A</tspan>
        </text>
      </g>
      <g class="recharts-layer recharts-cartesian-axis-tick">
        <path class="recharts-cartesian-axis-tick-line" stroke="#666" fill="none" d="M161.667 249v-6"/>
        <text x="161.667" y="251" fill="#666" class="recharts-text recharts-cartesian-axis-tick-value" text-anchor="middle">
          <tspan x="161.667" dy=".71em">Page B</tspan>
        </text>
      </g>
      <g class="recharts-layer recharts-cartesian-axis-tick">
        <path class="recharts-cartesian-axis-tick-line" stroke="#666" fill="none" d="M243.333 249v-6"/>
        <text x="243.333" y="251" fill="#666" class="recharts-text recharts-cartesian-axis-tick-value" text-anchor="middle">
          <tspan x="243.333" dy=".71em">Page C</tspan>
        </text>
      </g>
      <g class="recharts-layer recharts-cartesian-axis-tick">
        <path class="recharts-cartesian-axis-tick-line" stroke="#666" fill="none" d="M325 249v-6"/>
        <text x="325" y="251" fill="#666" class="recharts-text recharts-cartesian-axis-tick-value" text-anchor="middle">
          <tspan x="325" dy=".71em">Page D</tspan>
        </text>
      </g>
      <g class="recharts-layer recharts-cartesian-axis-tick">
        <path class="recharts-cartesian-axis-tick-line" stroke="#666" fill="none" d="M406.667 249v-6"/>
        <text x="406.667" y="251" fill="#666" class="recharts-text recharts-cartesian-axis-tick-value" text-anchor="middle">
          <tspan x="406.667" dy=".71em">Page E</tspan>
        </text>
      </g>
      <g class="recharts-layer recharts-cartesian-axis-tick">
        <path class="recharts-cartesian-axis-tick-line" stroke="#666" fill="none" d="M488.333 249v-6"/>
        <text x="488.333" y="251" fill="#666" class="recharts-text recharts-cartesian-axis-tick-value" text-anchor="middle">
          <tspan x="488.333" dy=".71em">Page F</tspan>
        </text>
      </g>
      <g class="recharts-layer recharts-cartesian-axis-tick">
        <path class="recharts-cartesian-axis-tick-line" stroke="#666" fill="none" d="M570 249v-6"/>
        <text x="570" y="251" fill="#666" class="recharts-text recharts-cartesian-axis-tick-value" text-anchor="middle">
          <tspan x="570" dy=".71em">Page G</tspan>
        </text>
      </g>
    </g>
  </g>
  <g class="recharts-layer recharts-cartesian-axis recharts-yAxis yAxis">
    <path class="recharts-cartesian-axis-line" stroke="#666" fill="none" d="M80 5v238"/>
    <g class="recharts-cartesian-axis-ticks">
      <g class="recharts-layer recharts-cartesian-axis-tick">
        <path class="recharts-cartesian-axis-tick-line" stroke="#666" fill="none" d="M74 243h6"/>
        <text x="72" y="243" fill="#666" class="recharts-text recharts-cartesian-axis-tick-value" text-anchor="end">
          <tspan x="72" dy=".355em">0</tspan>
        </text>
      </g>
      <g class="recharts-layer recharts-cartesian-axis-tick">
        <path class="recharts-cartesian-axis-tick-line" stroke="#666" fill="none" d="M74 183.5h6"/>
        <text x="72" y="183.5" fill="#666" class="recharts-text recharts-cartesian-axis-tick-value" text-anchor="end">
          <tspan x="72" dy=".355em">2500</tspan>
        </text>
      </g>
      <g class="recharts-layer recharts-cartesian-axis-tick">
        <path class="recharts-cartesian-axis-tick-line" stroke="#666" fill="none" d="M74 124h6"/>
        <text x="72" y="124" fill="#666" class="recharts-text recharts-cartesian-axis-tick-value" text-anchor="end">
          <tspan x="72" dy=".355em">5000</tspan>
        </text>
      </g>
      <g class="recharts-layer recharts-cartesian-axis-tick">
        <path class="recharts-cartesian-axis-tick-line" stroke="#666" fill="none" d="M74 64.5h6"/>
        <text x="72" y="64.5" fill="#666" class="recharts-text recharts-cartesian-axis-tick-value" text-anchor="end">
          <tspan x="72" dy=".355em">7500</tspan>
        </text>
      </g>
      <g class="recharts-layer recharts-cartesian-axis-tick">
        <path class="recharts-cartesian-axis-tick-line" stroke="#666" fill="none" d="M74 5h6"/>
        <text x="72" y="11" fill="#666" class="recharts-text recharts-cartesian-axis-tick-value" text-anchor="end">
          <tspan x="72" dy=".355em">10000</tspan>
        </text>
      </g>
    </g>
  </g>
  <path d="M80 243h490M80 183.5h490M80 124h490M80 64.5h490M80 5h490M80 5v238M161.667 5v238M243.333 5v238M325 5v238M406.667 5v238M488.333 5v238M570 5v238" stroke-dasharray="3 3" stroke="#ccc" fill="none"/>
  <g class="recharts-layer recharts-line">
    <path stroke="#8884d8" fill="none" stroke-dasharray="757.8885498046875px 0px" class="recharts-curve recharts-line-curve" d="M80 185.88c27.222 11.924 54.444 23.848 81.667 23.848 27.222 0 54.444-199.968 81.666-199.968 27.223 0 54.445 140.23 81.667 140.23s54.444-21.23 81.667-21.23c27.222 0 54.444 23.8 81.666 23.8 27.223 0 54.445-5.95 81.667-11.9"/>
    <g class="recharts-layer recharts-line-dots">
      <circle r="3" stroke="#8884d8" fill="#fff" class="recharts-dot recharts-line-dot" cx="80" cy="185.88"/>
      <circle r="3" stroke="#8884d8" fill="#fff" class="recharts-dot recharts-line-dot" cx="161.667" cy="209.728"/>
      <circle r="3" stroke="#8884d8" fill="#fff" class="recharts-dot recharts-line-dot" cx="243.333" cy="9.76"/>
      <circle r="3" stroke="#8884d8" fill="#fff" class="recharts-dot recharts-line-dot" cx="325" cy="149.99"/>
      <circle r="3" stroke="#8884d8" fill="#fff" class="recharts-dot recharts-line-dot" cx="406.667" cy="128.76"/>
      <circle r="3" stroke="#8884d8" fill="#fff" class="recharts-dot recharts-line-dot" cx="488.333" cy="152.56"/>
      <circle r="3" stroke="#8884d8" fill="#fff" class="recharts-dot recharts-line-dot" cx="570" cy="140.66"/>
    </g>
  </g>
  <g class="recharts-layer recharts-line">
    <path stroke="#82ca9d" fill="none" stroke-dasharray="511.50079345703125px 0px" class="recharts-curve recharts-line-curve" d="M80 147.8l81.667 23.8c27.222 7.933 54.444 23.8 81.666 23.8 27.223 0 54.445-18.564 81.667-18.564s54.444 21.182 81.667 21.182c27.222 0 54.444-5.553 81.666-11.9 27.223-6.347 54.445-16.263 81.667-26.18"/>
    <g class="recharts-layer recharts-line-dots">
      <circle r="3" stroke="#82ca9d" fill="#fff" class="recharts-dot recharts-line-dot" cx="80" cy="147.8"/>
      <circle r="3" stroke="#82ca9d" fill="#fff" class="recharts-dot recharts-line-dot" cx="161.667" cy="171.6"/>
      <circle r="3" stroke="#82ca9d" fill="#fff" class="recharts-dot recharts-line-dot" cx="243.333" cy="195.4"/>
      <circle r="3" stroke="#82ca9d" fill="#fff" class="recharts-dot recharts-line-dot" cx="325" cy="176.836"/>
      <circle r="3" stroke="#82ca9d" fill="#fff" class="recharts-dot recharts-line-dot" cx="406.667" cy="198.018"/>
      <circle r="3" stroke="#82ca9d" fill="#fff" class="recharts-dot recharts-line-dot" cx="488.333" cy="186.118"/>
      <circle r="3" stroke="#82ca9d" fill="#fff" class="recharts-dot recharts-line-dot" cx="570" cy="159.938"/>
    </g>
  </g>
</svg>
