<svg class="recharts-surface" width="600" height="300" viewBox="0 0 600 300" version="1.1" xmlns="http://www.w3.org/2000/svg"
     xmlns:xlink="http://www.w3.org/1999/xlink"><g class="recharts-layer recharts-cartesian-axis recharts-xAxis xAxis"><line class="recharts-cartesian-axis-line" width="490" height="30" x="80" y="243" stroke="#666" fill="none" x1="80" y1="243" x2="570" y2="243"></line><g class="recharts-cartesian-axis-ticks"><g class="recharts-layer recharts-cartesian-axis-tick"><line class="recharts-cartesian-axis-tick-line" width="490" height="30" x="80" y="243" stroke="#666" fill="none" x1="80" y1="249" x2="80" y2="243"></line><text width="490" height="30" x="80" y="251" stroke="none" fill="#666" class="recharts-text recharts-cartesian-axis-tick-value" text-anchor="middle"><tspan x="80" dy="0.71em">Page A</tspan></text></g><g class="recharts-layer recharts-cartesian-axis-tick"><line class="recharts-cartesian-axis-tick-line" width="490" height="30" x="80" y="243" stroke="#666" fill="none" x1="161.66666666666669" y1="249" x2="161.66666666666669" y2="243"></line><text width="490" height="30" x="161.66666666666669" y="251" stroke="none" fill="#666" class="recharts-text recharts-cartesian-axis-tick-value" text-anchor="middle"><tspan x="161.66666666666669" dy="0.71em">Page B</tspan></text></g><g class="recharts-layer recharts-cartesian-axis-tick"><line class="recharts-cartesian-axis-tick-line" width="490" height="30" x="80" y="243" stroke="#666" fill="none" x1="243.33333333333334" y1="249" x2="243.33333333333334" y2="243"></line><text width="490" height="30" x="243.33333333333334" y="251" stroke="none" fill="#666" class="recharts-text recharts-cartesian-axis-tick-value" text-anchor="middle"><tspan x="243.33333333333334" dy="0.71em">Page C</tspan></text></g><g class="recharts-layer recharts-cartesian-axis-tick"><line class="recharts-cartesian-axis-tick-line" width="490" height="30" x="80" y="243" stroke="#666" fill="none" x1="325" y1="249" x2="325" y2="243"></line><text width="490" height="30" x="325" y="251" stroke="none" fill="#666" class="recharts-text recharts-cartesian-axis-tick-value" text-anchor="middle"><tspan x="325" dy="0.71em">Page D</tspan></text></g><g class="recharts-layer recharts-cartesian-axis-tick"><line class="recharts-cartesian-axis-tick-line" width="490" height="30" x="80" y="243" stroke="#666" fill="none" x1="406.6666666666667" y1="249" x2="406.6666666666667" y2="243"></line><text width="490" height="30" x="406.6666666666667" y="251" stroke="none" fill="#666" class="recharts-text recharts-cartesian-axis-tick-value" text-anchor="middle"><tspan x="406.6666666666667" dy="0.71em">Page E</tspan></text></g><g class="recharts-layer recharts-cartesian-axis-tick"><line class="recharts-cartesian-axis-tick-line" width="490" height="30" x="80" y="243" stroke="#666" fill="none" x1="488.33333333333337" y1="249" x2="488.33333333333337" y2="243"></line><text width="490" height="30" x="488.33333333333337" y="251" stroke="none" fill="#666" class="recharts-text recharts-cartesian-axis-tick-value" text-anchor="middle"><tspan x="488.33333333333337" dy="0.71em">Page F</tspan></text></g><g class="recharts-layer recharts-cartesian-axis-tick"><line class="recharts-cartesian-axis-tick-line" width="490" height="30" x="80" y="243" stroke="#666" fill="none" x1="570" y1="249" x2="570" y2="243"></line><text width="490" height="30" x="570" y="251" stroke="none" fill="#666" class="recharts-text recharts-cartesian-axis-tick-value" text-anchor="middle"><tspan x="570" dy="0.71em">Page G</tspan></text></g></g></g><g class="recharts-layer recharts-cartesian-axis recharts-yAxis yAxis"><line class="recharts-cartesian-axis-line" width="60" height="238" x="20" y="5" stroke="#666" fill="none" x1="80" y1="5" x2="80" y2="243"></line><g class="recharts-cartesian-axis-ticks"><g class="recharts-layer recharts-cartesian-axis-tick"><line class="recharts-cartesian-axis-tick-line" width="60" height="238" x="20" y="5" stroke="#666" fill="none" x1="74" y1="243" x2="80" y2="243"></line><text width="60" height="238" x="72" y="243" stroke="none" fill="#666" class="recharts-text recharts-cartesian-axis-tick-value" text-anchor="end"><tspan x="72" dy="0.355em">0</tspan></text></g><g class="recharts-layer recharts-cartesian-axis-tick"><line class="recharts-cartesian-axis-tick-line" width="60" height="238" x="20" y="5" stroke="#666" fill="none" x1="74" y1="183.5" x2="80" y2="183.5"></line><text width="60" height="238" x="72" y="183.5" stroke="none" fill="#666" class="recharts-text recharts-cartesian-axis-tick-value" text-anchor="end"><tspan x="72" dy="0.355em">2500</tspan></text></g><g class="recharts-layer recharts-cartesian-axis-tick"><line class="recharts-cartesian-axis-tick-line" width="60" height="238" x="20" y="5" stroke="#666" fill="none" x1="74" y1="124" x2="80" y2="124"></line><text width="60" height="238" x="72" y="124" stroke="none" fill="#666" class="recharts-text recharts-cartesian-axis-tick-value" text-anchor="end"><tspan x="72" dy="0.355em">5000</tspan></text></g><g class="recharts-layer recharts-cartesian-axis-tick"><line class="recharts-cartesian-axis-tick-line" width="60" height="238" x="20" y="5" stroke="#666" fill="none" x1="74" y1="64.5" x2="80" y2="64.5"></line><text width="60" height="238" x="72" y="64.5" stroke="none" fill="#666" class="recharts-text recharts-cartesian-axis-tick-value" text-anchor="end"><tspan x="72" dy="0.355em">7500</tspan></text></g><g class="recharts-layer recharts-cartesian-axis-tick"><line class="recharts-cartesian-axis-tick-line" width="60" height="238" x="20" y="5" stroke="#666" fill="none" x1="74" y1="5" x2="80" y2="5"></line><text width="60" height="238" x="72" y="11" stroke="none" fill="#666" class="recharts-text recharts-cartesian-axis-tick-value" text-anchor="end"><tspan x="72" dy="0.355em">10000</tspan></text></g></g></g><g class="recharts-cartesian-grid"><g class="recharts-cartesian-grid-horizontal"><line stroke-dasharray="3 3" stroke="#ccc" fill="none" x="80" y="5" width="490" height="238" x1="80" y1="243" x2="570" y2="243"></line><line stroke-dasharray="3 3" stroke="#ccc" fill="none" x="80" y="5" width="490" height="238" x1="80" y1="183.5" x2="570" y2="183.5"></line><line stroke-dasharray="3 3" stroke="#ccc" fill="none" x="80" y="5" width="490" height="238" x1="80" y1="124" x2="570" y2="124"></line><line stroke-dasharray="3 3" stroke="#ccc" fill="none" x="80" y="5" width="490" height="238" x1="80" y1="64.5" x2="570" y2="64.5"></line><line stroke-dasharray="3 3" stroke="#ccc" fill="none" x="80" y="5" width="490" height="238" x1="80" y1="5" x2="570" y2="5"></line></g><g class="recharts-cartesian-grid-vertical"><line stroke-dasharray="3 3" stroke="#ccc" fill="none" x="80" y="5" width="490" height="238" x1="80" y1="5" x2="80" y2="243"></line><line stroke-dasharray="3 3" stroke="#ccc" fill="none" x="80" y="5" width="490" height="238" x1="161.66666666666669" y1="5" x2="161.66666666666669" y2="243"></line><line stroke-dasharray="3 3" stroke="#ccc" fill="none" x="80" y="5" width="490" height="238" x1="243.33333333333334" y1="5" x2="243.33333333333334" y2="243"></line><line stroke-dasharray="3 3" stroke="#ccc" fill="none" x="80" y="5" width="490" height="238" x1="325" y1="5" x2="325" y2="243"></line><line stroke-dasharray="3 3" stroke="#ccc" fill="none" x="80" y="5" width="490" height="238" x1="406.6666666666667" y1="5" x2="406.6666666666667" y2="243"></line><line stroke-dasharray="3 3" stroke="#ccc" fill="none" x="80" y="5" width="490" height="238" x1="488.33333333333337" y1="5" x2="488.33333333333337" y2="243"></line><line stroke-dasharray="3 3" stroke="#ccc" fill="none" x="80" y="5" width="490" height="238" x1="570" y1="5" x2="570" y2="243"></line></g></g><g class="recharts-layer recharts-line"><path stroke="#8884d8" stroke-width="1" fill="none" width="490" height="238" stroke-dasharray="757.8885498046875px 0px" class="recharts-curve recharts-line-curve" d="M80,185.88C107.22222222222223,197.8038,134.44444444444446,209.7276,161.66666666666669,209.7276C188.8888888888889,209.7276,216.11111111111111,9.759999999999991,243.33333333333334,9.759999999999991C270.55555555555554,9.759999999999991,297.77777777777777,149.9896,325,149.9896C352.22222222222223,149.9896,379.44444444444446,128.76,406.6666666666667,128.76C433.8888888888889,128.76,461.11111111111114,152.56,488.33333333333337,152.56C515.5555555555555,152.56,542.7777777777778,146.61,570,140.66"></path><g class="recharts-layer recharts-line-dots"><circle r="3" stroke="#8884d8" stroke-width="1" fill="#fff" width="490" height="238" class="recharts-dot recharts-line-dot" cx="80" cy="185.88"></circle><circle r="3" stroke="#8884d8" stroke-width="1" fill="#fff" width="490" height="238" class="recharts-dot recharts-line-dot" cx="161.66666666666669" cy="209.7276"></circle><circle r="3" stroke="#8884d8" stroke-width="1" fill="#fff" width="490" height="238" class="recharts-dot recharts-line-dot" cx="243.33333333333334" cy="9.759999999999991"></circle><circle r="3" stroke="#8884d8" stroke-width="1" fill="#fff" width="490" height="238" class="recharts-dot recharts-line-dot" cx="325" cy="149.9896"></circle><circle r="3" stroke="#8884d8" stroke-width="1" fill="#fff" width="490" height="238" class="recharts-dot recharts-line-dot" cx="406.6666666666667" cy="128.76"></circle><circle r="3" stroke="#8884d8" stroke-width="1" fill="#fff" width="490" height="238" class="recharts-dot recharts-line-dot" cx="488.33333333333337" cy="152.56"></circle><circle r="3" stroke="#8884d8" stroke-width="1" fill="#fff" width="490" height="238" class="recharts-dot recharts-line-dot" cx="570" cy="140.66"></circle></g></g><g class="recharts-layer recharts-line"><path stroke="#82ca9d" stroke-width="1" fill="none" width="490" height="238" stroke-dasharray="511.50079345703125px 0px" class="recharts-curve recharts-line-curve" d="M80,147.8C107.22222222222223,155.73333333333335,134.44444444444446,163.66666666666669,161.66666666666669,171.60000000000002C188.8888888888889,179.53333333333336,216.11111111111111,195.4,243.33333333333334,195.4C270.55555555555554,195.4,297.77777777777777,176.836,325,176.836C352.22222222222223,176.836,379.44444444444446,198.018,406.6666666666667,198.018C433.8888888888889,198.018,461.11111111111114,192.46466666666666,488.33333333333337,186.118C515.5555555555555,179.77133333333333,542.7777777777778,169.85466666666665,570,159.938"></path><g class="recharts-layer recharts-line-dots"><circle r="3" stroke="#82ca9d" stroke-width="1" fill="#fff" width="490" height="238" class="recharts-dot recharts-line-dot" cx="80" cy="147.8"></circle><circle r="3" stroke="#82ca9d" stroke-width="1" fill="#fff" width="490" height="238" class="recharts-dot recharts-line-dot" cx="161.66666666666669" cy="171.60000000000002"></circle><circle r="3" stroke="#82ca9d" stroke-width="1" fill="#fff" width="490" height="238" class="recharts-dot recharts-line-dot" cx="243.33333333333334" cy="195.4"></circle><circle r="3" stroke="#82ca9d" stroke-width="1" fill="#fff" width="490" height="238" class="recharts-dot recharts-line-dot" cx="325" cy="176.836"></circle><circle r="3" stroke="#82ca9d" stroke-width="1" fill="#fff" width="490" height="238" class="recharts-dot recharts-line-dot" cx="406.6666666666667" cy="198.018"></circle><circle r="3" stroke="#82ca9d" stroke-width="1" fill="#fff" width="490" height="238" class="recharts-dot recharts-line-dot" cx="488.33333333333337" cy="186.118"></circle><circle r="3" stroke="#82ca9d" stroke-width="1" fill="#fff" width="490" height="238" class="recharts-dot recharts-line-dot" cx="570" cy="159.938"></circle></g></g></svg>
